<?xml version="1.0" encoding="UTF-8"?>
<svg version="1.1" viewBox="0 0 1024 1024" width="1280" height="1280" xmlns="http://www.w3.org/2000/svg">
<path transform="translate(0)" d="m0 0h1024v1024h-1024z" fill="#FCFCFC"/>
<path transform="translate(505,331)" d="m0 0h38l22 1h92l46 2 21 3 15 4 8 6 6 10 2 7 1 9v15l-5 106-3 81-3 63-1 20 10 10 7 10 2 10-1 11-3 6-5 5-9 4-12 2h-423l-16-3-8-5-5-10v-16l4-8 8-10 3-3-3-27-2-41-2-55-1-118v-43l2-13 4-9 5-7 8-5 14-4 25-2 63-3 47-1z" fill="#CAD0D4"/>
<path transform="translate(505,331)" d="m0 0h38l22 1h92l46 2 21 3 15 4 8 6 6 10 2 7 1 9v15l-5 106-3 81-3 63-1 20 10 10 7 10 2 10-1 11-3 6-5 5-9 4-12 2h-423l-16-3-8-5-5-10v-16l4-8 8-10 3-3-3-27-2-41-2-55-1-118v-43l2-13 4-9 5-7 8-5 14-4 25-2 63-3 47-1zm-11 10-24 1-74 2-71 3-12 3-9 6-5 10-1 5v131l1 43 3 76 2 28 3 17 6 12 6 4 13 3 33 3 19 1h269l41-2 21-2 9-4 6-8 3-10 2-17 4-88 3-82 4-77v-33l-3-9-4-5-7-4-17-4-19-2-27-1z"/>
<path transform="translate(526,390)" d="m0 0h13l12 4 5 4 2 6-3 10-4 4h-7l-4-1h-9l-6 3h-2l-3 9v30l21 1 8 2 2 3-1 13-4 8-2 1-19 1-1 1v10l4 36v23l-3 7-4 2h-17l-6-3-3-5v-36l-2-29-1-5-2-1-17-2-4-5v-17l4-3 17-2v-31l3-14 5-10 9-8 10-4z" fill="#FAFBFB"/>
<path transform="translate(494,341)" d="m0 0h175l27 1 19 2 17 4 9 6 4 8 1 4v33l-4 77-4 105-3 65-3 22-2 5h-2l2-23 1-22 2-113 1-35 3-59 1-27v-15l-2-13-4-7-8-6-12-3-15-1-108-1-36-1h-53l-26 1-123 1-18 1-16 4-6 4-6 8-3 11v71l2 113 2 45 3 55 1 9-2-1-3-13-2-18-2-41-2-52-1-43v-131l3-10 5-7 10-5 9-2 101-4 44-1z" fill="#F7F8F8"/>
<path transform="translate(350,715)" d="m0 0h352l28 1-3 2-26 4-36 4-56 4-24 1-42 1h-54l-61-2-54-4-41-5-17-3-2-2z" fill="#CAD0D4"/>
<path transform="translate(524,384)" d="m0 0h17l11 4 6 4 5 6v12l-4 9-6 5-8 1-7-2h-6l-4 2-2 5v23l23 2 5 3 3 6v10l-2 9-5 8-6 2-14 1 4 37 1 21-2 12-3 5-8 4-5 1h-9l-13-4-5-6-1-3v-32l-1-23v-12l-16-2-6-4-3-5v-20l3-5 5-3 13-1v-27l3-14 6-12 5-6 11-7zm2 6-15 4-9 6-6 7-4 10-2 11v31l-17 2-4 3v17l4 5 17 2 2 1 2 15 1 19v36l3 5 6 3h17l5-3 2-6v-23l-4-36v-10l1-1 19-1 4-4 2-5 1-13-4-4-6-1-21-1v-30l3-9 5-2 3-1h9l4 1h7l4-4 3-10-3-7-6-4-10-3z"/>
<path transform="translate(384,694)" d="m0 0h276l-1 13h-274z" fill="#CAD0D4"/>
<path transform="translate(325,347)" d="m0 0h38v1l-30 2-16 4-6 4-6 8-3 11v71l2 113 2 45 3 55 1 9-2-1-3-13-2-18-2-41-2-52-1-43v-131l3-10 5-7 10-5z" fill="#F3F4F5"/>
<path transform="translate(289,689)" d="m0 0 28 2 36 2-2 4-1 10h-49l-7-3-5-7z" fill="#CAD0D4"/>
<path transform="translate(746,690)" d="m0 0h9l-2 10-6 5-6 2h-47v-8l-2-6z" fill="#CAD0D4"/>
<path transform="translate(741,667)" d="m0 0 7 6 6 8v3l-9 1h-13l6-10z" fill="#CAD0D4"/>
<path transform="translate(298,671)" d="m0 0h2l6 11 2 3h-11l-8-2 5-8z" fill="#CAD0D4"/>
</svg>
